<svg xmlns="http://www.w3.org/2000/svg" viewBox="0 0 558.55 157.78"><defs><style>.cls-1{fill:none;}.cls-2{font-size:36px;font-family:HelveticaNeue-Medium, Helvetica Neue;font-weight:500;}.cls-3{font-family:HelveticaNeue-Light, Helvetica Neue;font-weight:300;}</style></defs><title>자산 2</title><g id="레이어_2" data-name="레이어 2"><g id="레이어_1-2" data-name="레이어 1"><rect class="cls-1" width="558.55" height="157.78"/><path d="M116.2,75.57l7.41,7.35V95.26l-8.15,8.12H90.36l-7.88-7.84,5.77-5.7,6,6h17.16l3.66-3.66V85.94l-3-2.88-21-1.41L83.78,74.3V62.56l8.16-8.16h23.31L122.74,62l-5.7,5.7L111.31,62H96l-3.66,3.69v5.63l2.95,3Z"/><path d="M154,74.94h20.92v28.44h-6.47l-.56-6.33-6.4,6.33H142.67l-9.56-9.49v-30l9.56-9.53h22.74l8,8.09-5.74,5.7L161.55,62h-15l-5,5V90.79l5,5h13l6.85-6.86V82.57H154Z"/><path d="M219.59,89.42l5.77,5.66-8.2,8.3H195.05l-9.56-9.49v-30l9.56-9.53h21.59l8.22,8.3-5.76,5.7L212.77,62H199l-5,5V90.79l5,5h14.31Z"/><path d="M268,89.42l5.76,5.66-8.19,8.3H243.43l-9.57-9.49v-30l9.57-9.53H265l8.23,8.3-5.77,5.7L261.15,62H247.33l-5,5V90.79l5,5h14.31Z"/><polygon points="78.36 25.54 25 78.89 78.36 132.25 83.75 126.85 35.79 78.89 83.75 30.93 78.36 25.54"/><polygon points="277.86 25.54 272.46 30.93 320.42 78.89 272.46 126.85 277.86 132.25 325.82 84.29 331.21 78.89 277.86 25.54"/><text class="cls-2" transform="translate(363.15 54.91)">Sogang<tspan class="cls-3"><tspan x="0" y="37.2">Computer</tspan><tspan x="0" y="74.4">Club</tspan></tspan></text></g></g></svg>